<?xml version="1.0" encoding="UTF-8"?>
<svg id="_Слой_1" data-name="Слой_1" xmlns="http://www.w3.org/2000/svg" version="1.1" viewBox="0 0 1024 1024">
  <!-- Generator: Adobe Illustrator 29.6.0, SVG Export Plug-In . SVG Version: 2.1.1 Build 207)  -->
  <defs>
    <style>
      .st0 {
        fill: #4866f4;
      }

      .st1 {
        fill: #ff5090;
      }

      .st2 {
        fill: #1aa2ff;
      }
    </style>
  </defs>
  <path id="F" class="st1" d="M396.65,12.03c192.2-.01,384.41-.02,576.61-.03,7.8,1.36,12.47,4.06,15.01,5.84,37.02,26.09-11.45,118.23-20.63,130.05-2.99,3.85-6.29,7.61-6.29,7.61-4.81,5.48-9.32,9.89-12.95,13.22h-503.08l-1.46,170.73h435.81c5.12,5.49,12.26,14.67,15.81,27.25,1.63,5.78,4.79,20.39-6.2,48.51-8.88,22.74-26.71,68.38-71.96,80.56-10.73,2.89-20.31,3.17-26.86,2.93h-345.14l-1.46,98.1c.09,7.48-.79,18.37-5.78,30.41-18.1,43.72-72.22,59.13-82.92,62.17-36.74,10.46-69.19,5.37-85.34,1.7-.01-185.04-.02-370.07-.03-555.11-.19-3.03-.2-6.14,0-9.33,1.99-31.5,23.8-55.15,38.73-68.19,2.91-2.92,5.82-5.85,8.72-8.77,13.54-13.75,37.19-32.7,70.33-36.89,3.08-.39,6.11-.64,9.08-.75Z"/>
  <path class="st2" d="M508.92,559.18h223.79l-.8,118.1c-.09,3.66-.35,8.96-1.14,15.31-7.84,62.9-52.66,105.76-85.49,136.34-31.92,29.72-83.07,77.34-161.27,86.72-6.47.78-11.89,1.14-15.66,1.33h-251.4l-170.85,95.04,223.55-267.64c17.05,2.21,42.09,3.88,71.63,0,17.41-2.29,69.73-9.16,110.69-41.23,65.67-51.42,58.14-133.12,56.95-143.95Z"/>
  <path class="st0" d="M46.09,1012V409.75c.04-1.43.13-3.62.37-6.27,4.92-56.08,52.71-94.19,62.56-102.03,34.45-27.47,72.03-38.03,93.41-42.38v565.77"/>
</svg>